<svg width="32" height="32" viewBox="0 0 32 32" fill="none" xmlns="http://www.w3.org/2000/svg">
<g clip-path="url(#clip0_4_4655)">
<path fill-rule="evenodd" clip-rule="evenodd" d="M6.66625 11.9993C6.66625 9.524 7.64958 7.15003 9.39992 5.39969C11.1503 3.64935 13.5242 2.66602 15.9996 2.66602C18.4749 2.66602 20.8489 3.64935 22.5992 5.39969C24.3496 7.15003 25.3329 9.524 25.3329 11.9993V17.018L27.7623 21.8767C27.8741 22.1003 27.9269 22.3488 27.9157 22.5986C27.9044 22.8484 27.8295 23.0911 27.6981 23.3038C27.5666 23.5165 27.383 23.692 27.1646 23.8138C26.9462 23.9355 26.7003 23.9994 26.4502 23.9993H21.1649C20.8683 25.1437 20.2002 26.1571 19.2653 26.8806C18.3304 27.6041 17.1817 27.9966 15.9996 27.9966C14.8175 27.9966 13.6688 27.6041 12.7339 26.8806C11.799 26.1571 11.1308 25.1437 10.8342 23.9993H5.54892C5.29889 23.9994 5.053 23.9355 4.8346 23.8138C4.61621 23.692 4.43257 23.5165 4.30111 23.3038C4.16965 23.0911 4.09475 22.8484 4.08351 22.5986C4.07228 22.3488 4.12508 22.1003 4.23691 21.8767L6.66625 17.018V11.9993ZM13.6902 23.9993C13.9243 24.4047 14.2609 24.7413 14.6663 24.9753C15.0717 25.2094 15.5315 25.3326 15.9996 25.3326C16.4677 25.3326 16.9275 25.2094 17.3329 24.9753C17.7382 24.7413 18.0749 24.4047 18.3089 23.9993H13.6902ZM15.9996 5.33268C14.2315 5.33268 12.5358 6.03506 11.2855 7.2853C10.0353 8.53555 9.33292 10.2312 9.33292 11.9993V17.018C9.33289 17.4318 9.23657 17.8399 9.05158 18.21L7.49158 21.3327H24.5089L22.9489 18.21C22.7635 17.84 22.6667 17.4319 22.6662 17.018V11.9993C22.6662 10.2312 21.9639 8.53555 20.7136 7.2853C19.4634 6.03506 17.7677 5.33268 15.9996 5.33268Z" fill="black" fill-opacity="0.45"/>
</g>
<defs>
<clipPath id="clip0_4_4655">
<rect width="32" height="32" fill="white"/>
</clipPath>
</defs>
</svg>
