<svg width="19" height="19" viewBox="0 0 19 19" fill="none" xmlns="http://www.w3.org/2000/svg">
<path d="M4.83984 14.3239H6.44699C6.53538 14.3239 6.6077 14.2516 6.6077 14.1632V4.8418C6.6077 4.7534 6.53538 4.68108 6.44699 4.68108H4.83984C4.75145 4.68108 4.67913 4.7534 4.67913 4.8418V14.1632C4.67913 14.2516 4.75145 14.3239 4.83984 14.3239ZM8.69699 8.69894H10.3041C10.3925 8.69894 10.4648 8.62662 10.4648 8.53823V4.8418C10.4648 4.7534 10.3925 4.68108 10.3041 4.68108H8.69699C8.60859 4.68108 8.53627 4.7534 8.53627 4.8418V8.53823C8.53627 8.62662 8.60859 8.69894 8.69699 8.69894ZM12.5541 10.1454H14.1613C14.2497 10.1454 14.322 10.073 14.322 9.98465V4.8418C14.322 4.7534 14.2497 4.68108 14.1613 4.68108H12.5541C12.4657 4.68108 12.3934 4.7534 12.3934 4.8418V9.98465C12.3934 10.073 12.4657 10.1454 12.5541 10.1454ZM16.8934 1.4668H2.1077C1.75212 1.4668 1.46484 1.75407 1.46484 2.10965V16.8954C1.46484 17.2509 1.75212 17.5382 2.1077 17.5382H16.8934C17.249 17.5382 17.5363 17.2509 17.5363 16.8954V2.10965C17.5363 1.75407 17.249 1.4668 16.8934 1.4668ZM16.0898 16.0918H2.91127V2.91323H16.0898V16.0918Z" fill="black" fill-opacity="0.88"/>
</svg>
