<svg width="19" height="19" viewBox="0 0 19 19" fill="none" xmlns="http://www.w3.org/2000/svg">
<path d="M15.7725 13.2778C15.2696 12.7745 14.6821 12.3638 14.0368 12.0644C14.9468 11.3271 15.5274 10.2021 15.5274 8.94048C15.5274 6.71459 13.6711 4.88847 11.4453 4.92263C9.25351 4.95678 7.48766 6.74272 7.48766 8.94048C7.48766 10.2021 8.07025 11.3271 8.97829 12.0644C8.33283 12.3636 7.74525 12.7743 7.24257 13.2778C6.1457 14.3766 5.52293 15.8271 5.48275 17.374C5.48221 17.3954 5.48598 17.4167 5.49381 17.4367C5.50165 17.4567 5.5134 17.4749 5.52838 17.4902C5.54336 17.5056 5.56125 17.5178 5.58102 17.5261C5.60079 17.5344 5.62202 17.5387 5.64347 17.5387H6.76847C6.85485 17.5387 6.92717 17.4704 6.92918 17.384C6.96735 16.2188 7.43945 15.128 8.26914 14.3003C8.6937 13.8735 9.19871 13.5351 9.75492 13.3048C10.3111 13.0744 10.9075 12.9567 11.5095 12.9583C12.733 12.9583 13.8841 13.4345 14.7499 14.3003C15.5776 15.128 16.0497 16.2188 16.0899 17.384C16.0919 17.4704 16.1642 17.5387 16.2506 17.5387H17.3756C17.3971 17.5387 17.4183 17.5344 17.4381 17.5261C17.4578 17.5178 17.4757 17.5056 17.4907 17.4902C17.5057 17.4749 17.5174 17.4567 17.5253 17.4367C17.5331 17.4167 17.5369 17.3954 17.5363 17.374C17.4961 15.8271 16.8734 14.3766 15.7725 13.2778ZM11.5095 11.5119C10.8225 11.5119 10.1756 11.2447 9.69146 10.7586C9.44848 10.5175 9.25655 10.23 9.12712 9.91312C8.99769 9.59628 8.93341 9.2566 8.93811 8.91437C8.94414 8.25544 9.2073 7.61861 9.66735 7.14651C10.1495 6.65231 10.7944 6.37709 11.4834 6.36905C12.1644 6.36303 12.8254 6.62821 13.3115 7.10432C13.8098 7.59249 14.083 8.24539 14.083 8.94048C14.083 9.62754 13.8158 10.2724 13.3296 10.7586C13.0911 10.9982 12.8074 11.1882 12.495 11.3175C12.1826 11.4468 11.8477 11.5129 11.5095 11.5119ZM6.47717 9.47084C6.45909 9.29606 6.44905 9.11928 6.44905 8.94048C6.44905 8.62106 6.47918 8.30968 6.53543 8.00633C6.54949 7.93401 6.51132 7.85968 6.44503 7.82955C6.17181 7.707 5.9207 7.53825 5.70373 7.3253C5.44808 7.07742 5.2469 6.77896 5.11304 6.44898C4.97918 6.11899 4.91557 5.76473 4.92628 5.40879C4.94436 4.76392 5.20351 4.1512 5.65552 3.68914C6.15172 3.18088 6.81869 2.90365 7.52784 2.91169C8.16869 2.91771 8.78744 3.16481 9.25552 3.60276C9.41422 3.75142 9.55083 3.91615 9.66534 4.09294C9.70552 4.15522 9.78387 4.18133 9.85217 4.15722C10.2057 4.03468 10.5794 3.9483 10.9631 3.90812C11.0756 3.89606 11.1399 3.77553 11.0897 3.67508C10.4368 2.38334 9.10284 1.49138 7.55998 1.46727C5.33208 1.43312 3.47583 3.25923 3.47583 5.48312C3.47583 6.74472 4.05641 7.86972 4.96646 8.607C4.32762 8.90231 3.739 9.31013 3.22873 9.82039C2.12784 10.9193 1.50507 12.3697 1.46489 13.9186C1.46436 13.94 1.46812 13.9614 1.47595 13.9813C1.48379 14.0013 1.49554 14.0195 1.51052 14.0349C1.5255 14.0502 1.5434 14.0624 1.56316 14.0707C1.58293 14.0791 1.60416 14.0833 1.62561 14.0833H2.75262C2.839 14.0833 2.91132 14.015 2.91333 13.9287C2.9515 12.7635 3.4236 11.6726 4.25329 10.8449C4.84391 10.2543 5.56713 9.8445 6.35664 9.64562C6.43498 9.62553 6.48722 9.5512 6.47717 9.47084Z" fill="black" fill-opacity="0.88"/>
</svg>
