<svg width="19" height="19" viewBox="0 0 19 19" fill="none" xmlns="http://www.w3.org/2000/svg">
<g clip-path="url(#clip0_4_4559)">
<path d="M17.4548 12.0714H15.3655V9.01786C15.3655 8.92946 15.2932 8.85714 15.2048 8.85714H10.2227V6.92857H12.3923C12.5691 6.92857 12.7137 6.78393 12.7137 6.60714V0.821429C12.7137 0.644643 12.5691 0.5 12.3923 0.5H6.60659C6.4298 0.5 6.28516 0.644643 6.28516 0.821429V6.60714C6.28516 6.78393 6.4298 6.92857 6.60659 6.92857H8.77623V8.85714H3.79409C3.70569 8.85714 3.63337 8.92946 3.63337 9.01786V12.0714H1.54408C1.3673 12.0714 1.22266 12.2161 1.22266 12.3929V18.1786C1.22266 18.3554 1.3673 18.5 1.54408 18.5H7.3298C7.50659 18.5 7.65123 18.3554 7.65123 18.1786V12.3929C7.65123 12.2161 7.50659 12.0714 7.3298 12.0714H5.0798V10.3036H13.9191V12.0714H11.6691C11.4923 12.0714 11.3477 12.2161 11.3477 12.3929V18.1786C11.3477 18.3554 11.4923 18.5 11.6691 18.5H17.4548C17.6316 18.5 17.7762 18.3554 17.7762 18.1786V12.3929C17.7762 12.2161 17.6316 12.0714 17.4548 12.0714ZM6.12444 13.5982V16.9732H2.74944V13.5982H6.12444ZM7.81194 5.40179V2.02679H11.1869V5.40179H7.81194ZM16.2494 16.9732H12.8744V13.5982H16.2494V16.9732Z" fill="black" fill-opacity="0.88"/>
</g>
<defs>
<clipPath id="clip0_4_4559">
<rect width="18" height="18" fill="white" transform="translate(0.5 0.5)"/>
</clipPath>
</defs>
</svg>
