<svg width="19" height="19" viewBox="0 0 19 19" fill="none" xmlns="http://www.w3.org/2000/svg">
<g clip-path="url(#clip0_4_4568)">
<path d="M16.3818 5.01205L12.0585 0.688839C11.938 0.568304 11.7753 0.5 11.6045 0.5H3.07059C2.71501 0.5 2.42773 0.787277 2.42773 1.14286V17.8571C2.42773 18.2127 2.71501 18.5 3.07059 18.5H15.9277C16.2833 18.5 16.5706 18.2127 16.5706 17.8571V5.46808C16.5706 5.29732 16.5023 5.13259 16.3818 5.01205ZM15.088 5.76339H11.3072V1.98259L15.088 5.76339ZM15.1242 17.0536H3.87416V1.94643H9.94113V6.28571C9.94113 6.50949 10.03 6.7241 10.1883 6.88234C10.3465 7.04057 10.5611 7.12946 10.7849 7.12946H15.1242V17.0536ZM9.33845 11.6295H5.64202C5.55363 11.6295 5.48131 11.7018 5.48131 11.7902V12.7545C5.48131 12.8429 5.55363 12.9152 5.64202 12.9152H9.33845C9.42684 12.9152 9.49916 12.8429 9.49916 12.7545V11.7902C9.49916 11.7018 9.42684 11.6295 9.33845 11.6295ZM5.48131 9.05804V10.0223C5.48131 10.1107 5.55363 10.183 5.64202 10.183H13.3563C13.4447 10.183 13.517 10.1107 13.517 10.0223V9.05804C13.517 8.96964 13.4447 8.89732 13.3563 8.89732H5.64202C5.55363 8.89732 5.48131 8.96964 5.48131 9.05804Z" fill="black" fill-opacity="0.88"/>
</g>
<defs>
<clipPath id="clip0_4_4568">
<rect width="18" height="18" fill="white" transform="translate(0.5 0.5)"/>
</clipPath>
</defs>
</svg>
