<svg width="18" height="18" viewBox="0 0 18 18" fill="none" xmlns="http://www.w3.org/2000/svg">
<path d="M7.875 3.35742C7.875 3.65579 7.99353 3.94194 8.2045 4.15292C8.41548 4.3639 8.70163 4.48242 9 4.48242C9.29837 4.48242 9.58452 4.3639 9.79549 4.15292C10.0065 3.94194 10.125 3.65579 10.125 3.35742C10.125 3.05905 10.0065 2.77291 9.79549 2.56193C9.58452 2.35095 9.29837 2.23242 9 2.23242C8.70163 2.23242 8.41548 2.35095 8.2045 2.56193C7.99353 2.77291 7.875 3.05905 7.875 3.35742ZM7.875 8.98242C7.875 9.28079 7.99353 9.56694 8.2045 9.77792C8.41548 9.9889 8.70163 10.1074 9 10.1074C9.29837 10.1074 9.58452 9.9889 9.79549 9.77792C10.0065 9.56694 10.125 9.28079 10.125 8.98242C10.125 8.68405 10.0065 8.39791 9.79549 8.18693C9.58452 7.97595 9.29837 7.85742 9 7.85742C8.70163 7.85742 8.41548 7.97595 8.2045 8.18693C7.99353 8.39791 7.875 8.68405 7.875 8.98242V8.98242ZM7.875 14.6074C7.875 14.9058 7.99353 15.1919 8.2045 15.4029C8.41548 15.6139 8.70163 15.7324 9 15.7324C9.29837 15.7324 9.58452 15.6139 9.79549 15.4029C10.0065 15.1919 10.125 14.9058 10.125 14.6074C10.125 14.3091 10.0065 14.0229 9.79549 13.8119C9.58452 13.6009 9.29837 13.4824 9 13.4824C8.70163 13.4824 8.41548 13.6009 8.2045 13.8119C7.99353 14.0229 7.875 14.3091 7.875 14.6074V14.6074Z" fill="black" fill-opacity="0.88"/>
</svg>
