<svg xmlns="http://www.w3.org/2000/svg" viewBox="0 0 14 14"><g style="fill:none;stroke:currentcolor;stroke-width:1;stroke-linejoin:round"><path stroke-width="1.125" d="M11.91 11.16c.5-.59.88-1.26 1.14-1.98L11.8 8.1c.17-.73.17-1.49 0-2.22l1.25-1.06a6.42 6.42 0 0 0-1.14-1.98l-1.54.54a4.94 4.94 0 0 0-1.93-1.11l-.3-1.6A6.43 6.43 0 0 0 5.85.67l-.3 1.61c-.72.22-1.38.6-1.92 1.12L2.1 2.85c-.5.59-.89 1.26-1.15 1.98L2.2 5.89a4.94 4.94 0 0 0 0 2.22L.94 9.18c.26.72.64 1.39 1.14 1.97l1.54-.54c.55.5 1.2.88 1.92 1.1l.3 1.62c.76.13 1.53.13 2.29 0l.3-1.61c.7-.22 1.36-.6 1.91-1.11z"/><circle cx="7" cy="7" r="2.25"/></g></svg>
