<svg xmlns="http://www.w3.org/2000/svg" width="100" height="32"><path fill="var(--app-logo-color)" d="M74.6 10c-1.16 2.72-4.06 9.22-6 13.94.75 0 2.72 0 3.6.06l.84-2.19c1.5-.06 4.5-.1 6.12-.12.25.75.66 1.43 1 2.31l3.32-.03c-1.75-4.47-3.85-9.16-5.82-13.9-1-.1-2.03 0-3.06-.07zm1.53 3.53c1.25 2.81 1.25 2.88 2.4 5.81-1.9.07-2.68 0-4.77.07zM58.62 10c-1.13 2.73-4.05 9.2-6.02 13.92.76 0 2.76.02 3.6.08l.87-2.22 6.1-.08c.28.75.68 1.4 1.01 2.3.82 0 2.45 0 3.32-.06-1.77-4.44-3.85-9.1-5.82-13.88-1.01-.09-2.05 0-3.06-.06zm1.51 3.51.03.03c1.21 2.81 1.21 2.87 2.4 5.8-1.92.08-2.7 0-4.79.08.7-1.66 1.5-3.71 2.36-5.9zM93 7c-7 0-8.17 7.5-2 9 3.76.75 4.77 1.97 4.74 3.38 0 1.31-1 2.57-3.14 2.62-2.36.05-3.66-2.13-4.87-4.17-1.16.41-2.24 1-3.23 1.72C86 23 89 25 93 25c7 0 10.68-8.56-.15-11.1-3.3-.78-3.06-3.89-.05-4.04 1.75-.1 2.97 1.22 3.7 2.34 1.16-.37 1.81-1.6 2.71-2.26C98 8 96 7 93 7ZM40.5 8c-.1 4.81.17 10.26-.04 15.93l3.81.07v-3.3c5.1-.47 9.23-1.2 9.23-6.2 0-7-6.5-6.5-13-6.5Zm4.98 2.93h.02c7.42-.03 5.86 8-1.44 6.37-.1-2-.16-4.2-.16-6.3.57-.07 1.08-.07 1.58-.07z"/><path fill="#e6f4ff" d="M14.5 0A61.26 61.26 0 0 0 0 11.5c.49 3.26 1.68 10 3.4 15.7 3.84 2.4 10.8 4.37 13.2 4.8 4.44-2.4 9.85-4.66 13-8.1.06-4.47.5-11.76-.1-16-3.72-2.23-10.33-6.41-15-7.9Z"/><path fill="#1677ff" d="M18.1 16.9a10.88 10.88 0 0 1-1.23-12.4 10.91 10.91 0 0 1 1.23 12.4Zm-.03-.48a5.05 5.05 0 0 0-.46-4.47 5.2 5.2 0 0 0 .43 4.47zm.89-3.58a10.74 10.74 0 0 0-2.04-7.36 11.08 11.08 0 0 0-.48 7.61c-.26-1.89 0-3.83.71-5.64a10.88 10.88 0 0 1 1.8 5.39zm-3.07 6.81-.2-2.12 4.96-.48.46 4.63a6.69 6.69 0 0 1-4.73 2.64c-9.05.86-10.4-12.54-1.35-13.55l.52 5.07c-5.15.86-4 8.02.77 7.6 3.04-.35 3.73-3.27 2.06-4.19-.57-.31-1.6-.57-2.49.4z"/></svg>
